<?xml version="1.0" standalone="no"?>
<!DOCTYPE svg PUBLIC "-//W3C//DTD SVG 20010904//EN"
 "http://www.w3.org/TR/2001/REC-SVG-20010904/DTD/svg10.dtd">
<svg version="1.0" xmlns="http://www.w3.org/2000/svg"
 width="50px" height="50px" viewBox="0 0 91 91"
 preserveAspectRatio="xMidYMid meet">
<metadata>
Created by potrace 1.16, written by Peter Selinger 2001-2019
</metadata>
<g transform="translate(0.000000,90.000000) scale(0.100000,-0.100000)"
fill="#000000" stroke="none">
<path d="M472 858 c-17 -17 -15 -43 4 -58 9 -8 14 -25 12 -44 -2 -26 -12 -36
-53 -58 -27 -15 -53 -28 -57 -28 -5 0 -8 20 -8 45 0 43 -1 45 -30 45 -17 0
-41 7 -55 16 -31 20 -65 4 -65 -31 0 -35 34 -51 65 -31 14 9 33 16 45 16 16 0
20 -6 20 -35 0 -29 -6 -39 -40 -61 l-39 -26 -27 21 c-15 12 -35 21 -45 21 -11
0 -19 5 -19 11 0 6 -14 9 -32 7 -29 -3 -33 -7 -33 -32 0 -36 27 -56 52 -38 34
23 44 24 64 6 16 -15 19 -28 17 -78 l-3 -61 -38 -3 c-26 -2 -45 2 -57 13 -35
31 -88 -4 -64 -42 15 -25 42 -28 64 -8 12 11 31 15 57 13 l38 -3 3 -61 c2 -51
0 -63 -18 -79 -17 -16 -24 -17 -38 -7 -46 33 -77 23 -77 -24 0 -23 5 -30 24
-32 13 -2 28 1 34 7 6 6 20 11 31 11 11 0 30 10 43 22 l22 21 41 -27 c34 -22
40 -32 40 -61 0 -29 -4 -35 -20 -35 -12 0 -31 7 -45 16 -31 20 -65 4 -65 -32
0 -35 42 -54 68 -31 10 10 33 17 50 17 31 0 32 1 32 45 0 25 3 45 8 45 4 0 30
-13 57 -28 39 -21 51 -33 53 -55 2 -17 -3 -36 -13 -47 -20 -22 -17 -49 8 -64
38 -24 73 29 42 64 -10 11 -15 30 -13 47 2 22 14 34 53 55 28 15 53 28 58 28
4 0 7 -20 7 -45 0 -43 1 -45 30 -45 17 0 41 -7 55 -16 31 -20 65 -4 65 31 0
36 -33 50 -69 29 -37 -22 -61 -13 -61 24 0 30 17 50 58 72 21 10 27 9 46 -9
12 -12 32 -21 44 -21 12 0 22 -5 22 -11 0 -6 14 -9 33 -7 28 3 32 7 32 32 0
36 -27 56 -53 38 -33 -23 -43 -24 -63 -6 -16 15 -19 28 -17 78 l3 61 38 3 c26
2 45 -2 57 -13 22 -20 49 -17 64 8 24 38 -29 73 -64 42 -12 -11 -31 -15 -57
-13 l-38 3 -3 61 c-2 51 0 63 18 79 17 16 24 17 38 7 46 -33 77 -23 77 24 0
25 -4 29 -32 32 -19 2 -33 -1 -33 -7 0 -6 -10 -11 -22 -11 -12 0 -32 -10 -45
-22 l-22 -21 -41 27 c-34 22 -40 32 -40 61 0 29 4 35 20 35 12 0 31 -7 45 -16
31 -20 65 -4 65 32 0 35 -42 54 -68 31 -10 -10 -33 -17 -50 -17 -31 0 -32 -1
-32 -45 0 -25 -3 -45 -7 -45 -5 0 -30 13 -58 28 -41 22 -51 32 -53 58 -2 19 3
36 12 44 29 23 13 70 -24 70 -9 0 -21 -5 -28 -12z m139 -215 l109 -58 1 -45
c1 -25 1 -85 1 -134 l-1 -90 -110 -59 -111 -59 -112 60 -113 60 1 131 c0 72 2
133 5 135 6 5 213 116 218 116 2 0 53 -26 112 -57z"/>
<path d="M388 619 l-98 -49 0 -120 0 -120 105 -52 105 -53 105 53 105 52 0
120 0 120 -100 50 c-55 27 -105 50 -112 49 -7 0 -57 -22 -110 -50z m207 -21
l85 -42 0 -106 0 -106 -90 -44 -90 -44 -90 44 -90 44 0 106 0 106 83 41 c45
23 88 42 94 42 7 1 51 -18 98 -41z"/>
</g>
</svg>
